<svg width="24" height="24" viewBox="0 0 24 24" fill="none" xmlns="http://www.w3.org/2000/svg">
<path d="M18.6298 14.5554C18.8479 14.8005 18.9704 15.1328 18.9704 15.4793C18.9704 15.8259 18.8479 16.1582 18.6298 16.4033C18.4117 16.6483 18.1159 16.786 17.8075 16.786C17.4991 16.786 17.2033 16.6483 16.9852 16.4033L15.8736 15.1522V20.6956C15.8736 21.0416 15.7513 21.3733 15.5336 21.618C15.3159 21.8626 15.0206 22 14.7127 22C14.4048 22 14.1096 21.8626 13.8919 21.618C13.6742 21.3733 13.5518 21.0416 13.5518 20.6956V15.1522L12.4384 16.4043C12.2203 16.6494 11.9245 16.787 11.6161 16.787C11.3076 16.787 11.0118 16.6494 10.7938 16.4043C10.5757 16.1593 10.4531 15.827 10.4531 15.4804C10.4531 15.1339 10.5757 14.8016 10.7938 14.5565L13.8895 11.0783C13.9973 10.9567 14.1255 10.8602 14.2666 10.7943C14.4077 10.7285 14.559 10.6946 14.7118 10.6946C14.8646 10.6946 15.0158 10.7285 15.157 10.7943C15.2981 10.8602 15.4262 10.9567 15.5341 11.0783L18.6298 14.5554ZM15.0997 2C13.493 2.00087 11.9164 2.48999 10.5369 3.41556C9.15738 4.34113 8.02638 5.66869 7.26367 7.25761C6.37541 7.15308 5.4775 7.25286 4.62468 7.55089C3.77186 7.84891 2.98198 8.33893 2.30318 8.99108C1.62438 9.64323 1.07088 10.4439 0.676417 11.3442C0.281951 12.2445 0.0547779 13.2256 0.00874435 14.2277C-0.0372892 15.2299 0.0987807 16.2321 0.408661 17.1732C0.718541 18.1144 1.19574 18.9748 1.81118 19.702C2.42662 20.4292 3.1674 21.0079 3.98839 21.403C4.80937 21.7981 5.69336 22.0012 6.58648 22H9.29523C9.60312 22 9.8984 21.8626 10.1161 21.618C10.3338 21.3733 10.4561 21.0416 10.4561 20.6956C10.4561 20.3497 10.3338 20.0179 10.1161 19.7733C9.8984 19.5287 9.60312 19.3913 9.29523 19.3913H6.58648C5.47726 19.3837 4.41451 18.8898 3.62451 18.0149C2.83451 17.1401 2.37968 15.9532 2.35685 14.7072C2.33403 13.4611 2.74502 12.2543 3.50231 11.3436C4.25961 10.433 5.30338 9.89043 6.41138 9.83152C6.27036 10.5435 6.19931 11.2706 6.19951 12C6.19951 12.3459 6.32182 12.6777 6.53953 12.9223C6.75724 13.1669 7.05252 13.3043 7.36041 13.3043C7.6683 13.3043 7.96357 13.1669 8.18128 12.9223C8.39899 12.6777 8.5213 12.3459 8.5213 12C8.5221 10.9308 8.72936 9.87447 9.12877 8.90398C9.52818 7.93349 10.1102 7.07192 10.8348 6.37872C11.5593 5.68551 12.4091 5.17718 13.3255 4.8888C14.2418 4.60043 15.203 4.53886 16.1426 4.70837C17.0822 4.87787 17.9778 5.2744 18.7678 5.8706C19.5578 6.46679 20.2232 7.24846 20.7182 8.16166C21.2132 9.07487 21.5259 10.0979 21.6349 11.1601C21.7438 12.2223 21.6463 13.2984 21.3492 14.3141C21.3015 14.4769 21.2828 14.6485 21.2941 14.8194C21.3055 14.9902 21.3467 15.1569 21.4153 15.3099C21.484 15.4628 21.5788 15.5991 21.6944 15.7109C21.8099 15.8227 21.9439 15.9078 22.0888 15.9614C22.2336 16.015 22.3864 16.036 22.5385 16.0233C22.6905 16.0105 22.8389 15.9642 22.975 15.8871C23.1111 15.8099 23.2324 15.7034 23.3319 15.5736C23.4314 15.4437 23.5072 15.2932 23.5549 15.1304C23.9943 13.6281 24.1105 12.0301 23.894 10.4675C23.6775 8.90487 23.1345 7.42217 22.3095 6.14094C21.4845 4.8597 20.4009 3.81642 19.1477 3.09662C17.8944 2.37682 16.5072 2.00101 15.0997 2Z" fill="white"/>
</svg>
