<svg width="24" height="24" viewBox="0 0 24 24" fill="none" xmlns="http://www.w3.org/2000/svg">
<path d="M21.9645 4.49156C21.8176 4.15936 21.5773 3.87698 21.2729 3.67876C20.9685 3.48054 20.6131 3.37501 20.2498 3.375H3.74982C3.38663 3.37504 3.03126 3.48055 2.7269 3.67873C2.42254 3.8769 2.18229 4.15921 2.03534 4.49135C1.88839 4.82348 1.84106 5.19114 1.8991 5.54967C1.95715 5.90819 2.11807 6.24214 2.36232 6.51094L2.37357 6.52406L8.62482 13.1953V20.25C8.62477 20.5895 8.71687 20.9226 8.8913 21.2138C9.06574 21.505 9.31595 21.7434 9.61526 21.9035C9.91457 22.0637 10.2517 22.1395 10.5908 22.1231C10.9298 22.1066 11.2581 21.9984 11.5404 21.81L14.5404 19.8103C14.7973 19.6389 15.0078 19.4068 15.1534 19.1345C15.299 18.8622 15.375 18.5581 15.3748 18.2494V13.1953L21.6251 6.52406L21.6364 6.51094C21.8808 6.24228 22.0419 5.90843 22.1001 5.54995C22.1584 5.19146 22.1113 4.82378 21.9645 4.49156ZM13.4333 11.9813C13.2364 12.1889 13.1261 12.4638 13.1248 12.75V18.0487L10.8748 19.5487V12.75C10.8745 12.4644 10.7656 12.1895 10.5701 11.9813L4.61513 5.625H19.3845L13.4333 11.9813Z" fill="white"/>
</svg>
