<svg width="16" height="16" viewBox="0 0 16 16" fill="none" xmlns="http://www.w3.org/2000/svg">
<path d="M10 9.5C10 9.76522 9.89465 10.0196 9.70711 10.2071C9.51957 10.3946 9.26522 10.5 9 10.5H8.5V8.5H9C9.26522 8.5 9.51957 8.60536 9.70711 8.79289C9.89465 8.98043 10 9.23478 10 9.5ZM14.5 8C14.5 9.28558 14.1188 10.5423 13.4046 11.6112C12.6903 12.6801 11.6752 13.5132 10.4874 14.0052C9.29973 14.4972 7.99279 14.6259 6.73192 14.3751C5.47104 14.1243 4.31285 13.5052 3.40381 12.5962C2.49477 11.6872 1.8757 10.529 1.6249 9.26809C1.37409 8.00721 1.50282 6.70028 1.99479 5.51256C2.48676 4.32484 3.31988 3.30968 4.3888 2.59545C5.45772 1.88122 6.71443 1.5 8 1.5C9.72335 1.50182 11.3756 2.18722 12.5942 3.40582C13.8128 4.62441 14.4982 6.27665 14.5 8ZM11 9.5C11 8.96957 10.7893 8.46086 10.4142 8.08579C10.0391 7.71071 9.53044 7.5 9 7.5H8.5V5.5H8.75C9.01522 5.5 9.26957 5.60536 9.45711 5.79289C9.64465 5.98043 9.75 6.23478 9.75 6.5C9.75 6.63261 9.80268 6.75979 9.89645 6.85355C9.99022 6.94732 10.1174 7 10.25 7C10.3826 7 10.5098 6.94732 10.6036 6.85355C10.6973 6.75979 10.75 6.63261 10.75 6.5C10.75 5.96957 10.5393 5.46086 10.1642 5.08579C9.78914 4.71071 9.28044 4.5 8.75 4.5H8.5V4C8.5 3.86739 8.44733 3.74022 8.35356 3.64645C8.25979 3.55268 8.13261 3.5 8 3.5C7.8674 3.5 7.74022 3.55268 7.64645 3.64645C7.55268 3.74022 7.5 3.86739 7.5 4V4.5H7.25C6.71957 4.5 6.21086 4.71071 5.83579 5.08579C5.46072 5.46086 5.25 5.96957 5.25 6.5C5.25 7.03043 5.46072 7.53914 5.83579 7.91421C6.21086 8.28929 6.71957 8.5 7.25 8.5H7.5V10.5H7C6.73479 10.5 6.48043 10.3946 6.2929 10.2071C6.10536 10.0196 6 9.76522 6 9.5C6 9.36739 5.94732 9.24022 5.85356 9.14645C5.75979 9.05268 5.63261 9 5.5 9C5.3674 9 5.24022 9.05268 5.14645 9.14645C5.05268 9.24022 5 9.36739 5 9.5C5 10.0304 5.21072 10.5391 5.58579 10.9142C5.96086 11.2893 6.46957 11.5 7 11.5H7.5V12C7.5 12.1326 7.55268 12.2598 7.64645 12.3536C7.74022 12.4473 7.8674 12.5 8 12.5C8.13261 12.5 8.25979 12.4473 8.35356 12.3536C8.44733 12.2598 8.5 12.1326 8.5 12V11.5H9C9.53044 11.5 10.0391 11.2893 10.4142 10.9142C10.7893 10.5391 11 10.0304 11 9.5ZM6.25 6.5C6.25 6.76522 6.35536 7.01957 6.5429 7.20711C6.73043 7.39464 6.98479 7.5 7.25 7.5H7.5V5.5H7.25C6.98479 5.5 6.73043 5.60536 6.5429 5.79289C6.35536 5.98043 6.25 6.23478 6.25 6.5Z" fill="#ABD400" style="fill:#ABD400;fill:color(display-p3 0.6706 0.8314 0.0000);fill-opacity:1;"/>
</svg>
