<svg width="16" height="16" viewBox="0 0 16 16" fill="none" xmlns="http://www.w3.org/2000/svg">
<path d="M8 1.5C6.71443 1.5 5.45772 1.88122 4.3888 2.59545C3.31988 3.30968 2.48676 4.32484 1.99479 5.51256C1.50282 6.70028 1.37409 8.00721 1.6249 9.26809C1.8757 10.529 2.49477 11.6872 3.40381 12.5962C4.31285 13.5052 5.47104 14.1243 6.73192 14.3751C7.99279 14.6259 9.29973 14.4972 10.4874 14.0052C11.6752 13.5132 12.6903 12.6801 13.4046 11.6112C14.1188 10.5423 14.5 9.28558 14.5 8C14.4982 6.27665 13.8128 4.62441 12.5942 3.40582C11.3756 2.18722 9.72335 1.50182 8 1.5ZM8 6.5C8.13261 6.5 8.25979 6.55268 8.35356 6.64645C8.44733 6.74022 8.5 6.86739 8.5 7C8.5 7.13261 8.44733 7.25979 8.35356 7.35355C8.25979 7.44732 8.13261 7.5 8 7.5H5.5V8.5H7C7.13261 8.5 7.25979 8.55268 7.35356 8.64645C7.44733 8.74022 7.5 8.86739 7.5 9C7.5 9.13261 7.44733 9.25979 7.35356 9.35355C7.25979 9.44732 7.13261 9.5 7 9.5H5.55063C5.63854 9.93101 5.83862 10.3312 6.13067 10.6602C6.42271 10.9891 6.79638 11.2352 7.21395 11.3735C7.63152 11.5119 8.07819 11.5376 8.50888 11.4481C8.93956 11.3586 9.33901 11.157 9.66688 10.8638C9.71536 10.8174 9.77266 10.7813 9.83537 10.7576C9.89808 10.7339 9.96492 10.723 10.0319 10.7257C10.0989 10.7283 10.1647 10.7444 10.2253 10.7729C10.286 10.8015 10.3403 10.842 10.385 10.892C10.4297 10.9419 10.4639 11.0004 10.4855 11.0639C10.5072 11.1273 10.5158 11.1945 10.511 11.2613C10.5061 11.3282 10.4879 11.3934 10.4574 11.4531C10.4268 11.5128 10.3846 11.5657 10.3331 11.6088C9.8613 12.0306 9.2839 12.3166 8.66241 12.4364C8.04091 12.5561 7.39858 12.5051 6.80379 12.2887C6.209 12.0723 5.68401 11.6987 5.28472 11.2076C4.88542 10.7166 4.62675 10.1264 4.53625 9.5H4C3.86739 9.5 3.74022 9.44732 3.64645 9.35355C3.55268 9.25979 3.5 9.13261 3.5 9C3.5 8.86739 3.55268 8.74022 3.64645 8.64645C3.74022 8.55268 3.86739 8.5 4 8.5H4.5V7.5H4C3.86739 7.5 3.74022 7.44732 3.64645 7.35355C3.55268 7.25979 3.5 7.13261 3.5 7C3.5 6.86739 3.55268 6.74022 3.64645 6.64645C3.74022 6.55268 3.86739 6.5 4 6.5H4.53625C4.62675 5.87358 4.88542 5.28342 5.28472 4.79235C5.68401 4.30128 6.209 3.92768 6.80379 3.71131C7.39858 3.49494 8.04091 3.44391 8.66241 3.56364C9.2839 3.68337 9.8613 3.96939 10.3331 4.39125C10.3846 4.43427 10.4268 4.4872 10.4574 4.54688C10.4879 4.60656 10.5061 4.67178 10.511 4.73865C10.5158 4.80553 10.5072 4.87269 10.4855 4.93615C10.4639 4.99961 10.4297 5.05806 10.385 5.10804C10.3403 5.15802 10.286 5.1985 10.2253 5.22707C10.1647 5.25564 10.0989 5.27172 10.0319 5.27435C9.96492 5.27698 9.89808 5.26611 9.83537 5.24239C9.77266 5.21866 9.71536 5.18257 9.66688 5.13625C9.33901 4.84299 8.93956 4.64143 8.50888 4.55192C8.07819 4.46242 7.63152 4.48814 7.21395 4.62648C6.79638 4.76482 6.42271 5.01089 6.13067 5.33985C5.83862 5.6688 5.63854 6.06899 5.55063 6.5H8Z" fill="#2456B3" style="fill:#2456B3;fill:color(display-p3 0.1412 0.3373 0.7020);fill-opacity:1;"/>
</svg>
